<!-- Favicon SVG -->
<svg width="64" height="64" viewBox="0 0 64 64" fill="none" xmlns="http://www.w3.org/2000/svg">
  <!-- Building base -->
  <rect x="8" y="24" width="48" height="32" fill="#3B82F6" rx="4"/>
  
  <!-- Building roof -->
  <path d="M4 28L32 8L60 28H56V24L32 12L8 24V28H4Z" fill="#1E40AF"/>
  
  <!-- Windows -->
  <rect x="14" y="32" width="6" height="6" fill="#DBEAFE" rx="1"/>
  <rect x="24" y="32" width="6" height="6" fill="#DBEAFE" rx="1"/>
  <rect x="34" y="32" width="6" height="6" fill="#DBEAFE" rx="1"/>
  <rect x="44" y="32" width="6" height="6" fill="#DBEAFE" rx="1"/>
  
  <rect x="14" y="42" width="6" height="6" fill="#DBEAFE" rx="1"/>
  <rect x="24" y="42" width="6" height="6" fill="#DBEAFE" rx="1"/>
  <rect x="34" y="42" width="6" height="6" fill="#DBEAFE" rx="1"/>
  <rect x="44" y="42" width="6" height="6" fill="#DBEAFE" rx="1"/>
  
  <!-- Door -->
  <rect x="28" y="44" width="8" height="12" fill="#1E40AF" rx="1"/>
  <circle cx="33" cy="50" r="1" fill="#DBEAFE"/>
  
  <!-- Star decoration -->
  <path d="M32 4L34 10L40 10L35 14L37 20L32 17L27 20L29 14L24 10L30 10L32 4Z" fill="#FCD34D"/>
</svg>